Land_normalized_Motion_pl14
version=1
nRows=16
nColumns=43
inDegrees=yes
endheader
time		pelvis_tilt		pelvis_list		pelvis_rotation		pelvis_tx		pelvis_ty		pelvis_tz		hip_flexion_r		hip_adduction_r		hip_rotation_r		knee_angle_r		ankle_angle_r		subtalar_angle_r		mtp_angle_r		hip_flexion_l		hip_adduction_l		hip_rotation_l		knee_angle_l		ankle_angle_l		subtalar_angle_l		mtp_angle_l		lumbar_extension		lumbar_bending		lumbar_rotation		neck_flexion		neck_lateral_bending		neck_rotation		arm_flex_r		arm_add_r		arm_rot_r		elbow_flex_r		pro_sup_r		wrist_flex_r		wrist_dev_r		hand_finger_flex_r		arm_flex_l		arm_add_l		arm_rot_l		elbow_flex_l		pro_sup_l		wrist_flex_l		wrist_dev_l		hand_finger_flex_l		
1.504167		-0.925868		9.190593		95.137722		0.027834		0.462498		0.494752		90.364317		-5.514076		1.321565		-136.988098		19.256903		1.355739		18.267973		90.250251		-9.376001		4.881346		-133.460846		20.280819		23.105475		24.016734		-62.590767		-3.943815		3.725476		36.326229		-3.046427		-9.478561		82.856086		-25.592266		13.688625		61.179544		115.873570		4.338190		-4.889034		22.688194		79.831039		-19.978159		30.211043		55.248621		129.800833		-37.363125		-11.052935		-17.197295		
1.506995		-0.931005		9.136589		95.304262		0.027766		0.457954		0.493291		90.945422		-5.722777		1.450986		-137.684248		19.432168		1.698646		18.442565		90.890624		-9.434896		5.065224		-134.103709		20.439074		23.564744		24.027736		-62.770819		-3.814011		3.649325		36.915825		-3.070559		-9.497376		85.264353		-25.209649		14.479567		61.064784		115.955617		4.235767		-4.885515		22.512394		81.875840		-19.579821		30.387396		54.840970		129.549281		-37.041022		-10.930223		-17.249527		
1.509823		-0.886846		9.364513		95.597139		0.027256		0.453689		0.491785		91.212195		-6.142029		1.658366		-138.454272		19.718952		2.712114		18.989108		91.273935		-9.293643		5.534074		-134.784038		20.629884		24.765840		24.010887		-63.193319		-3.439853		3.550770		37.283647		-3.344044		-9.458900		88.016150		-25.199752		16.463143		60.822084		115.767111		3.821601		-5.184837		21.969069		84.001377		-19.439758		31.115681		54.413706		128.487434		-36.965125		-10.752747		-17.773025		
1.512652		-0.860973		9.412631		95.806292		0.027162		0.449313		0.490296		91.669339		-6.407941		1.804819		-139.150809		19.837260		3.236818		19.869559		91.845839		-9.286139		5.868964		-135.440838		20.773785		25.471714		23.949547		-63.444472		-3.231009		3.413884		37.737868		-3.336361		-9.471797		90.558155		-25.012749		18.078078		60.625000		115.333882		3.341045		-5.176595		21.397039		86.235044		-19.456645		32.125761		53.920208		127.249792		-36.696283		-11.064126		-18.495425		
1.515480		-0.941305		9.337689		96.002219		0.027039		0.444883		0.488829		92.297744		-6.666921		2.045366		-139.841223		19.930205		3.486748		20.050470		92.492739		-9.236657		6.057066		-136.044019		20.780923		25.987157		23.972723		-63.583899		-3.119694		3.233693		38.142067		-3.300891		-9.455045		92.926417		-24.715921		19.148037		60.572960		115.854664		3.498074		-5.028983		21.339374		88.240556		-19.203952		32.401384		53.438531		127.253681		-36.221738		-11.093590		-18.458025		
1.518308		-0.978377		9.385594		96.237910		0.026736		0.440852		0.487432		92.725105		-6.998400		2.297404		-140.488715		20.112208		4.094993		20.392774		93.007237		-9.138382		6.325742		-136.636677		20.810398		26.782555		24.033549		-63.862368		-2.904144		3.078663		38.595249		-3.354031		-9.460880		95.362469		-24.425688		20.403013		60.418427		116.302049		3.458432		-5.050937		21.025934		90.259296		-18.995502		32.807800		52.944003		127.008783		-35.907754		-11.042480		-18.592813		
1.521136		-1.005283		9.437875		96.438963		0.026569		0.436960		0.486054		93.121447		-7.292054		2.520308		-141.103437		20.317227		4.722916		20.827987		93.509907		-9.066812		6.622951		-137.200529		20.819657		27.524991		24.113234		-64.143369		-2.726309		2.928467		39.024414		-3.351612		-9.452971		97.718031		-24.079665		21.570572		60.225088		116.612277		3.357983		-5.110251		20.577885		92.276001		-18.829773		33.296975		52.449528		126.663811		-35.634004		-11.008294		-18.800612		
1.523965		-1.052571		9.481517		96.620811		0.026451		0.433158		0.484656		93.518464		-7.543148		2.749661		-141.705129		20.496598		5.224690		21.250776		94.008033		-9.010977		6.867934		-137.762413		20.798378		28.158029		24.212924		-64.414670		-2.590333		2.777072		39.440682		-3.287726		-9.455005		99.991785		-23.730843		22.640039		60.069136		116.938125		3.372240		-5.095869		20.102474		94.278986		-18.663366		33.800075		51.926177		126.397639		-35.309102		-11.016191		-18.965647		
1.526793		-1.091485		9.493137		96.772876		0.026433		0.429404		0.483227		93.942672		-7.740672		2.937370		-142.292858		20.675695		5.598144		21.604147		94.527531		-8.974339		7.100469		-138.315926		20.777985		28.646532		24.303479		-64.642650		-2.490043		2.622077		39.822003		-3.163934		-9.456794		102.141863		-23.322051		23.532864		59.925488		117.268614		3.431084		-5.038610		19.695036		96.231262		-18.516547		34.262332		51.411343		126.252785		-34.931918		-11.066180		-19.056777		
1.529621		-1.137738		9.510909		96.911219		0.026401		0.425775		0.481766		94.347285		-7.910966		3.105390		-142.870778		20.847056		5.837231		21.835350		95.018246		-8.946518		7.289715		-138.860752		20.763667		29.043231		24.375757		-64.871131		-2.405244		2.480117		40.180313		-3.005498		-9.453931		104.213167		-22.909243		24.318294		59.812815		117.693678		3.547763		-4.946308		19.405938		98.123220		-18.342663		34.647725		50.878808		126.259624		-34.503668		-11.120589		-19.044961		
1.532449		-1.172616		9.589397		97.051285		0.026333		0.422408		0.480270		94.655184		-8.062367		3.254237		-143.442217		21.026783		6.064342		22.065121		95.413042		-8.920279		7.465986		-139.404297		20.791918		29.433390		24.460718		-65.157269		-2.306934		2.361682		40.534647		-2.852320		-9.467286		106.221978		-22.510541		25.045485		59.687216		118.124099		3.638794		-4.899477		19.052038		99.965258		-18.119661		34.997046		50.306054		126.216209		-34.132542		-11.131100		-19.060400		
1.535278		-1.206028		9.678469		97.177514		0.026327		0.419221		0.478763		94.931827		-8.185759		3.342987		-143.998827		21.191099		6.170209		22.256928		95.758879		-8.913377		7.614632		-139.923377		20.859471		29.714403		24.545243		-65.445212		-2.224636		2.258987		40.839582		-2.677389		-9.484879		108.120721		-22.089775		25.633676		59.561583		118.531749		3.726240		-4.863633		18.681347		101.731507		-17.871116		35.298044		49.728466		126.176957		-33.796120		-11.139188		-19.070888		
1.538106		-1.232587		9.774509		97.293904		0.026339		0.416203		0.477241		95.182309		-8.284576		3.385826		-144.543586		21.338460		6.151507		22.402462		96.062342		-8.911976		7.735439		-140.425188		20.961497		29.892747		24.623731		-65.730838		-2.150683		2.158633		41.100425		-2.487635		-9.502815		109.926026		-21.650397		26.116715		59.425024		118.923431		3.821094		-4.818354		18.303607		103.433630		-17.606813		35.559390		49.128709		126.160873		-33.479925		-11.144721		-19.064358		
1.540934		-1.245049		9.835884		97.386598		0.026321		0.413247		0.475658		95.459904		-8.349205		3.404092		-145.069114		21.466278		6.057823		22.490347		96.382362		-8.932286		7.818461		-140.922717		21.087378		29.971236		24.684178		-65.960357		-2.078378		2.073560		41.355268		-2.288007		-9.527874		111.575744		-21.130114		26.381275		59.277458		119.222668		3.867128		-4.751993		17.979298		104.991724		-17.312028		35.668792		48.551613		126.144687		-33.214307		-11.097731		-19.037345		
1.543763		-1.260910		9.911185		97.476015		0.026325		0.410464		0.474078		95.702846		-8.400169		3.389491		-145.582646		21.588388		5.872555		22.525908		96.651867		-8.945627		7.878185		-141.400534		21.247202		29.958197		24.725725		-66.194286		-2.011826		1.982362		41.523348		-2.083854		-9.535660		113.144913		-20.596525		26.583821		59.115789		119.482266		3.907061		-4.660984		17.685651		106.499621		-17.027338		35.778601		47.956673		126.195906		-32.947550		-11.056481		-18.971082		
1.546591		-1.278811		9.985024		97.557241		0.026342		0.407801		0.472488		95.927637		-8.435426		3.366024		-146.077194		21.700944		5.671557		22.547958		96.899383		-8.958117		7.926470		-141.860440		21.416760		29.914845		24.761065		-66.412846		-1.950594		1.900311		41.660191		-1.887071		-9.544666		114.622876		-20.052447		26.714361		58.939274		119.689837		3.929905		-4.572673		17.382301		107.922893		-16.740541		35.851872		47.367541		126.228463		-32.718783		-10.992201		-18.908650		
